<svg xmlns="http://www.w3.org/2000/svg" xmlns:xlink="http://www.w3.org/1999/xlink" width="500" zoomAndPan="magnify" viewBox="0 0 375 374.999991" height="500" preserveAspectRatio="xMidYMid meet" version="1.0"><defs><g/></defs><g fill="#000000" fill-opacity="1"><g transform="translate(87.747798, 271.796771)"><g><path d="M 49.53125 -193.671875 L 194.78125 -193.671875 L 194.78125 -96.28125 L 161.015625 -96.28125 L 161.015625 -94.34375 C 170.242188 -92.3125 177.71875 -88.578125 183.4375 -83.140625 C 189.15625 -77.703125 193.164062 -71.429688 195.46875 -64.328125 C 197.769531 -57.222656 198.457031 -49.890625 197.53125 -42.328125 C 196.613281 -34.765625 194.21875 -27.753906 190.34375 -21.296875 C 186.476562 -14.847656 181.222656 -9.640625 174.578125 -5.671875 C 167.941406 -1.703125 159.921875 0.28125 150.515625 0.28125 L 6.359375 0.28125 L 6.359375 -96.28125 L 45.375 -96.28125 L 45.375 -98.21875 C 31.90625 -100.800781 21.207031 -106.195312 13.28125 -114.40625 C 5.351562 -122.613281 1.390625 -132.988281 1.390625 -145.53125 C 1.390625 -153.832031 3.554688 -161.671875 7.890625 -169.046875 C 12.222656 -176.421875 18.03125 -182.367188 25.3125 -186.890625 C 32.601562 -191.410156 40.675781 -193.671875 49.53125 -193.671875 Z M 49.53125 -193.671875 "/></g></g></g><g fill="#ffffff" fill-opacity="1"><g transform="translate(160.660434, 252.806464)"><g><path d="M 12.921875 0 L 12.21875 -2.34375 L 6.40625 -2.34375 L 5.703125 0 L 0.234375 0 L 6.3125 -16.625 L 12.515625 -16.625 L 18.578125 0 Z M 7.515625 -6.0625 L 11.109375 -6.0625 L 9.375 -11.984375 L 9.28125 -11.984375 Z M 7.515625 -6.0625 "/></g></g></g><g fill="#ffffff" fill-opacity="1"><g transform="translate(179.44573, 252.806464)"><g><path d="M 11.109375 -16.625 C 12.140625 -16.625 13.054688 -16.382812 13.859375 -15.90625 C 14.671875 -15.425781 15.300781 -14.769531 15.75 -13.9375 C 16.195312 -13.113281 16.421875 -12.1875 16.421875 -11.15625 L 16.421875 -10.84375 C 16.421875 -9.8125 16.195312 -8.875 15.75 -8.03125 C 15.300781 -7.195312 14.671875 -6.539062 13.859375 -6.0625 C 13.054688 -5.59375 12.140625 -5.359375 11.109375 -5.359375 L 7.125 -5.359375 L 7.125 0 L 1.78125 0 L 1.78125 -16.625 Z M 7.125 -9.25 L 9.328125 -9.25 C 9.890625 -9.25 10.3125 -9.394531 10.59375 -9.6875 C 10.875 -9.976562 11.015625 -10.375 11.015625 -10.875 L 11.015625 -11.0625 C 11.015625 -11.582031 10.875 -11.984375 10.59375 -12.265625 C 10.3125 -12.546875 9.890625 -12.6875 9.328125 -12.6875 L 7.125 -12.6875 Z M 7.125 -9.25 "/></g></g></g><g fill="#ffffff" fill-opacity="1"><g transform="translate(196.878867, 252.806464)"><g><path d="M 11.109375 -16.625 C 12.140625 -16.625 13.054688 -16.382812 13.859375 -15.90625 C 14.671875 -15.425781 15.300781 -14.769531 15.75 -13.9375 C 16.195312 -13.113281 16.421875 -12.1875 16.421875 -11.15625 L 16.421875 -10.84375 C 16.421875 -9.8125 16.195312 -8.875 15.75 -8.03125 C 15.300781 -7.195312 14.671875 -6.539062 13.859375 -6.0625 C 13.054688 -5.59375 12.140625 -5.359375 11.109375 -5.359375 L 7.125 -5.359375 L 7.125 0 L 1.78125 0 L 1.78125 -16.625 Z M 7.125 -9.25 L 9.328125 -9.25 C 9.890625 -9.25 10.3125 -9.394531 10.59375 -9.6875 C 10.875 -9.976562 11.015625 -10.375 11.015625 -10.875 L 11.015625 -11.0625 C 11.015625 -11.582031 10.875 -11.984375 10.59375 -12.265625 C 10.3125 -12.546875 9.890625 -12.6875 9.328125 -12.6875 L 7.125 -12.6875 Z M 7.125 -9.25 "/></g></g></g></svg>