<svg xmlns="http://www.w3.org/2000/svg" xmlns:xlink="http://www.w3.org/1999/xlink" width="500" zoomAndPan="magnify" viewBox="0 0 375 374.999991" height="500" preserveAspectRatio="xMidYMid meet" version="1.0"><defs><g/><clipPath id="53dd7d09cd"><path d="M 318.433594 187.5 L 331.503906 187.5 L 331.503906 200.570312 L 318.433594 200.570312 Z M 318.433594 187.5 " clip-rule="nonzero"/></clipPath></defs><g fill="#000000" fill-opacity="1"><g transform="translate(36.75217, 201.007808)"><g><path d="M 14.3125 -56 L 56.3125 -56 L 56.3125 -27.84375 L 46.5625 -27.84375 L 46.5625 -27.28125 C 49.226562 -26.695312 51.382812 -25.617188 53.03125 -24.046875 C 54.6875 -22.472656 55.847656 -20.65625 56.515625 -18.59375 C 57.179688 -16.539062 57.378906 -14.421875 57.109375 -12.234375 C 56.847656 -10.046875 56.15625 -8.019531 55.03125 -6.15625 C 53.914062 -4.289062 52.394531 -2.785156 50.46875 -1.640625 C 48.550781 -0.492188 46.234375 0.078125 43.515625 0.078125 L 1.84375 0.078125 L 1.84375 -27.84375 L 13.125 -27.84375 L 13.125 -28.40625 C 9.226562 -29.144531 6.132812 -30.703125 3.84375 -33.078125 C 1.550781 -35.453125 0.40625 -38.453125 0.40625 -42.078125 C 0.40625 -44.484375 1.03125 -46.75 2.28125 -48.875 C 3.53125 -51.007812 5.207031 -52.726562 7.3125 -54.03125 C 9.425781 -55.34375 11.757812 -56 14.3125 -56 Z M 14.3125 -56 "/></g></g></g><g fill="#000000" fill-opacity="1"><g transform="translate(94.426566, 201.007808)"><g><path d="M 41.203125 -27.921875 L 41.203125 0.078125 L 13.203125 0.078125 L 13.203125 -27.921875 L 1.59375 -27.921875 L 1.59375 -56 L 52.078125 -56 L 52.078125 -27.921875 Z M 41.203125 -27.921875 "/></g></g></g><g fill="#000000" fill-opacity="1"><g transform="translate(148.18135, 201.007808)"><g><path d="M 2.078125 -26.875 L 2.078125 -56.15625 L 58.078125 -56.15625 L 58.078125 -26.875 C 58.078125 -23.039062 57.359375 -19.425781 55.921875 -16.03125 C 54.484375 -12.644531 52.46875 -9.660156 49.875 -7.078125 C 47.289062 -4.492188 44.304688 -2.476562 40.921875 -1.03125 C 37.535156 0.40625 33.921875 1.125 30.078125 1.125 C 26.234375 1.125 22.617188 0.40625 19.234375 -1.03125 C 15.847656 -2.476562 12.863281 -4.492188 10.28125 -7.078125 C 7.695312 -9.660156 5.679688 -12.644531 4.234375 -16.03125 C 2.796875 -19.425781 2.078125 -23.039062 2.078125 -26.875 Z M 2.078125 -26.875 "/></g></g></g><g fill="#000000" fill-opacity="1"><g transform="translate(208.335509, 201.007808)"><g><path d="M 30.40625 0.078125 L 2.40625 0.078125 L 2.40625 -56 L 30.40625 -56 C 34.238281 -56 37.847656 -55.265625 41.234375 -53.796875 C 44.617188 -52.328125 47.601562 -50.3125 50.1875 -47.75 C 52.78125 -45.195312 54.796875 -42.210938 56.234375 -38.796875 C 57.679688 -35.390625 58.40625 -31.765625 58.40625 -27.921875 C 58.40625 -24.078125 57.679688 -20.460938 56.234375 -17.078125 C 54.796875 -13.691406 52.78125 -10.703125 50.1875 -8.109375 C 47.601562 -5.523438 44.617188 -3.515625 41.234375 -2.078125 C 37.847656 -0.640625 34.238281 0.078125 30.40625 0.078125 Z M 30.40625 0.078125 "/></g></g></g><g fill="#000000" fill-opacity="1"><g transform="translate(268.169681, 201.007808)"><g><path d="M 43.046875 -28 L 43.046875 0 L 15.046875 0 L 15.046875 -28 L -0.640625 -56 L 58.71875 -56 Z M 43.046875 -28 "/></g></g></g><g clip-path="url(#53dd7d09cd)"><path fill="#fffaf3" d="M 318.433594 187.5 L 331.503906 187.5 L 331.503906 200.570312 L 318.433594 200.570312 Z M 318.433594 187.5 " fill-opacity="1" fill-rule="nonzero"/></g><g fill="#ffffff" fill-opacity="1"><g transform="translate(223.495887, 190.124988)"><g><path d="M 5.890625 0 L 5.5625 -1.0625 L 2.921875 -1.0625 L 2.59375 0 L 0.109375 0 L 2.875 -7.5625 L 5.703125 -7.5625 L 8.453125 0 Z M 3.421875 -2.765625 L 5.0625 -2.765625 L 4.265625 -5.453125 L 4.21875 -5.453125 Z M 3.421875 -2.765625 "/></g></g></g><g fill="#ffffff" fill-opacity="1"><g transform="translate(232.047839, 190.124988)"><g><path d="M 5.0625 -7.5625 C 5.53125 -7.5625 5.945312 -7.453125 6.3125 -7.234375 C 6.675781 -7.023438 6.960938 -6.726562 7.171875 -6.34375 C 7.378906 -5.96875 7.484375 -5.546875 7.484375 -5.078125 L 7.484375 -4.9375 C 7.484375 -4.46875 7.378906 -4.039062 7.171875 -3.65625 C 6.960938 -3.28125 6.675781 -2.984375 6.3125 -2.765625 C 5.945312 -2.546875 5.53125 -2.4375 5.0625 -2.4375 L 3.25 -2.4375 L 3.25 0 L 0.8125 0 L 0.8125 -7.5625 Z M 3.25 -4.21875 L 4.25 -4.21875 C 4.5 -4.21875 4.6875 -4.28125 4.8125 -4.40625 C 4.945312 -4.539062 5.015625 -4.722656 5.015625 -4.953125 L 5.015625 -5.03125 C 5.015625 -5.269531 4.945312 -5.453125 4.8125 -5.578125 C 4.6875 -5.710938 4.5 -5.78125 4.25 -5.78125 L 3.25 -5.78125 Z M 3.25 -4.21875 "/></g></g></g><g fill="#ffffff" fill-opacity="1"><g transform="translate(239.984225, 190.124988)"><g><path d="M 5.0625 -7.5625 C 5.53125 -7.5625 5.945312 -7.453125 6.3125 -7.234375 C 6.675781 -7.023438 6.960938 -6.726562 7.171875 -6.34375 C 7.378906 -5.96875 7.484375 -5.546875 7.484375 -5.078125 L 7.484375 -4.9375 C 7.484375 -4.46875 7.378906 -4.039062 7.171875 -3.65625 C 6.960938 -3.28125 6.675781 -2.984375 6.3125 -2.765625 C 5.945312 -2.546875 5.53125 -2.4375 5.0625 -2.4375 L 3.25 -2.4375 L 3.25 0 L 0.8125 0 L 0.8125 -7.5625 Z M 3.25 -4.21875 L 4.25 -4.21875 C 4.5 -4.21875 4.6875 -4.28125 4.8125 -4.40625 C 4.945312 -4.539062 5.015625 -4.722656 5.015625 -4.953125 L 5.015625 -5.03125 C 5.015625 -5.269531 4.945312 -5.453125 4.8125 -5.578125 C 4.6875 -5.710938 4.5 -5.78125 4.25 -5.78125 L 3.25 -5.78125 Z M 3.25 -4.21875 "/></g></g></g></svg>